<svg t="1724316570161" class="icon" viewBox="0 0 1185 1024" version="1.1" xmlns="http://www.w3.org/2000/svg" p-id="1505" xmlns:xlink="http://www.w3.org/1999/xlink" width="231.4453125" height="200">
    <path d="M414.276535 230.004913l-2.443086-31.647244 26.446614 17.351559 29.437984-11.852598-8.143622 30.31685 20.423559 24.221229-31.623055 1.475527-16.722646 26.801386-11.239811-29.760504-30.663559-7.522772zM581.664252 176.902047l13.884472-28.542992 14.206993 28.220473 31.42148 4.321763-22.350614 22.092599 5.684409 31.123149-28.180157-14.513385-27.897953 14.819779 5.28126-31.066709-22.76989-21.689448zM896.507969 672.735748l17.754708 26.398236-31.494047-2.064126-19.560819 24.705008-7.95011-30.502299-29.575055-11.02211 26.744945-16.771024 1.104629-31.526299 24.414741 20.197795 30.268472-8.619338zM777.030551 801.961323l2.112504 31.647244-26.446614-17.682142-29.413795 11.546205 8.466141-30.308787-20.092976-24.221229 31.606929-1.153008 17.045166-26.793323 10.86085 29.704063 30.647433 7.837229zM609.312252 853.451591l-14.198929 28.518803-14.110236-28.542992-31.405355-4.636221 22.673134-22.084535-5.36189-31.12315 27.833449 14.835906 28.188221-14.803654-5.28126 31.066709 22.76989 22.060346zM298.435528 354.828094l-17.448315-26.390173 31.485984 2.394709 19.875275-24.753386 7.611465 30.865134 29.583118 11.288189-27.011024 16.779087-1.419086 31.526299-24.084158-20.504189-30.518425 8.280693zM962.56 91.53915a43.636913 43.636913 0 0 1 59.375874 15.601889l138.627024 236.753638c12.175118 20.447748 5.12 47.208819-15.609953 59.375874L229.13411 938.185575a43.636913 43.636913 0 0 1-59.375874-15.60189L31.12315 685.773606a43.636913 43.636913 0 0 1 15.601889-59.319433z m25.672567 24.108346a13.594205 13.594205 0 0 0-10.441575 1.548095L61.625449 652.054173a13.586142 13.586142 0 0 0-4.853921 18.83515l138.643149 236.793953a13.586142 13.586142 0 0 0 18.843213 4.837795l915.818834-534.915024a13.957039 13.957039 0 0 0 5.160315-18.778708l-138.602834-236.78589a13.594205 13.594205 0 0 0-8.401638-6.393953z" fill="#F5222D" p-id="1506"></path>
    <path d="M395.981606 172.338394c123.670173-72.349228 271.11811-69.462677 388.394331-5.12l29.623433-17.335433a414.574866 414.574866 0 0 0-112.107842-47.071748 429.991307 429.991307 0 0 0-162.009701-10.498016 412.792945 412.792945 0 0 0-158.80063 54.707401 417.856504 417.856504 0 0 0-125.363402 111.922394A426.282331 426.282331 0 0 0 185.206929 405.004094a417.348535 417.348535 0 0 0-13.529701 120.977134l29.623433-17.335433c1.386835-133.958551 70.688252-263.958173 194.672882-336.307401z m397.666772 679.484472c-123.670173 72.365354-271.110047 69.462677-388.394331 5.128063l-29.623433 17.335433a414.679685 414.679685 0 0 0 112.075591 47.087874 429.991307 429.991307 0 0 0 162.009701 10.498016 412.744567 412.744567 0 0 0 158.808692-54.707402 423.145827 423.145827 0 0 0 209.105638-378.976756l-29.623433 17.335434c-1.072378 133.974677-70.712441 263.95011-194.350362 336.307401h-0.008063z" fill="#F5222D" p-id="1507"></path>
    <path d="M478.377323 313.110173a226.271748 226.271748 0 0 1 109.979212-31.219905l45.668788-26.761071c-58.634079-9.13537-118.316346 2.314079-170.612914 32.735748a258.693039 258.693039 0 0 0-111.91433 132.71685l45.67685-26.761071a230.359685 230.359685 0 0 1 81.097575-80.589606l0.104819-0.120945z m232.568945 397.674835a226.328189 226.328189 0 0 1-109.979213 31.227968l-45.668787 26.753008c58.634079 9.13537 118.316346-2.314079 170.612913-32.735748a258.709165 258.709165 0 0 0 111.914331-132.71685l-45.676851 26.761071a225.215496 225.215496 0 0 1-81.097574 80.597669l-0.104819 0.112882z" fill="#F5222D" p-id="1508"></path>

    <text x="592.5" y="512" font-family="'Microsoft YaHei', SimHei, sans-serif" font-size="140" font-weight="normal" fill="#F5222D" text-anchor="middle" dominant-baseline="central" letter-spacing="15" transform="rotate(-30 592.5 512)">办理不通过</text>
</svg>
